# Blender v2.79 (sub 0) OBJ File: 'player_ship2.blend'
# www.blender.org
mtllib player_ship.mtl
o Cube
v 1.784343 -0.200000 -2.000000
v 0.098977 -0.200000 2.000000
v -0.098978 -0.200000 2.000000
v -1.784343 -0.200000 -2.000001
v 1.500001 0.200000 -1.999999
v 0.290147 0.200000 2.000001
v -0.290148 0.200000 1.999999
v -1.500000 0.200000 -2.000000
v 0.000000 -0.468288 -2.000000
v -0.000000 -0.200000 2.000000
v 0.000000 -0.108765 -2.000000
v -0.000000 0.200000 2.000000
v -0.750000 0.200000 -2.000000
v -0.000000 0.200000 0.000000
v 0.750001 0.200000 -1.999999
vn -0.1484 -0.9869 0.0625
vn 0.0000 1.0000 -0.0000
vn 0.7709 0.5480 0.3248
vn 0.0000 -0.0000 1.0000
vn -0.7709 0.5480 0.3248
vn 0.0000 0.0000 -1.0000
vn 0.1484 -0.9869 0.0625
vn 0.3769 0.9154 -0.1413
vn -0.3769 0.9154 -0.1413
vn -0.0000 -0.9978 0.0669
vn 0.8704 -0.4160 0.2633
vn -0.8704 -0.4160 0.2633
usemtl Material
s off
f 9//1 3//1 4//1
f 7//2 12//2 14//2
f 5//3 2//3 1//3
f 12//4 3//4 10//4
f 3//5 8//5 4//5
f 8//6 11//6 4//6
f 1//6 9//6 11//6
f 2//4 12//4 10//4
f 14//2 12//2 6//2
f 2//7 9//7 1//7
f 14//8 11//8 13//8
f 14//9 15//9 11//9
f 9//10 10//10 3//10
f 13//2 8//2 14//2
f 8//2 7//2 14//2
f 5//11 6//11 2//11
f 12//4 7//4 3//4
f 3//12 7//12 8//12
f 13//6 11//6 8//6
f 11//6 9//6 4//6
f 15//6 5//6 11//6
f 5//6 1//6 11//6
f 2//4 6//4 12//4
f 6//2 5//2 14//2
f 5//2 15//2 14//2
f 2//10 10//10 9//10
